<?xml version="1.0" standalone="no"?>
<!DOCTYPE svg PUBLIC "-//W3C//DTD SVG 20010904//EN"
 "http://www.w3.org/TR/2001/REC-SVG-20010904/DTD/svg10.dtd">
<svg version="1.0" xmlns="http://www.w3.org/2000/svg"
 width="750.000000pt" height="580.000000pt" viewBox="0 0 750.000000 580.000000"
 preserveAspectRatio="xMidYMid meet">

<g transform="translate(0.000000,580.000000) scale(0.100000,-0.100000)"
fill="#000000" stroke="none">
<path d="M0 2900 l0 -2900 2455 0 2455 0 0 115 0 115 1128 0 1127 0 -3 -115
-3 -115 170 0 171 0 0 2900 0 2900 -3750 0 -3750 0 0 -2900z m1434 1829 c-3
-5 -10 -7 -15 -3 -5 3 -7 10 -3 15 3 5 10 7 15 3 5 -3 7 -10 3 -15z m2316 6
c0 -8 -7 -15 -15 -15 -8 0 -15 7 -15 15 0 8 7 15 15 15 8 0 15 -7 15 -15z
m626 -12 c-10 -10 -19 5 -10 18 6 11 8 11 12 0 2 -7 1 -15 -2 -18z m72 2 c-3
-3 -9 2 -12 12 -6 14 -5 15 5 6 7 -7 10 -15 7 -18z m150 7 c2 -7 -6 -12 -17
-12 -21 0 -27 11 -14 24 9 9 26 2 31 -12z m52 8 c0 -5 -4 -10 -10 -10 -5 0
-10 5 -10 10 0 6 5 10 10 10 6 0 10 -4 10 -10z m67 -12 c-3 -8 -6 -5 -6 6 -1
11 2 17 5 13 3 -3 4 -12 1 -19z m71 3 c3 -8 -1 -12 -9 -9 -7 2 -15 10 -17 17
-3 8 1 12 9 9 7 -2 15 -10 17 -17z m-3218 -1 c0 -5 -2 -10 -4 -10 -3 0 -8 5
-11 10 -3 6 -1 10 4 10 6 0 11 -4 11 -10z m47 4 c-3 -3 -12 -4 -19 -1 -8 3 -5
6 6 6 11 1 17 -2 13 -5z m281 -1 c-10 -2 -26 -2 -35 0 -10 3 -2 5 17 5 19 0
27 -2 18 -5z m175 0 c-7 -2 -21 -2 -30 0 -10 3 -4 5 12 5 17 0 24 -2 18 -5z
m104 1 c-3 -3 -12 -4 -19 -1 -8 3 -5 6 6 6 11 1 17 -2 13 -5z m40 0 c-3 -3
-12 -4 -19 -1 -8 3 -5 6 6 6 11 1 17 -2 13 -5z m61 -1 c-10 -2 -26 -2 -35 0
-10 3 -2 5 17 5 19 0 27 -2 18 -5z m49 1 c-3 -3 -12 -4 -19 -1 -8 3 -5 6 6 6
11 1 17 -2 13 -5z m80 0 c-3 -3 -12 -4 -19 -1 -8 3 -5 6 6 6 11 1 17 -2 13 -5z
m80 0 c-3 -3 -12 -4 -19 -1 -8 3 -5 6 6 6 11 1 17 -2 13 -5z m146 -1 c-7 -2
-21 -2 -30 0 -10 3 -4 5 12 5 17 0 24 -2 18 -5z m54 1 c-3 -3 -12 -4 -19 -1
-8 3 -5 6 6 6 11 1 17 -2 13 -5z m201 -1 c-10 -2 -28 -2 -40 0 -13 2 -5 4 17
4 22 1 32 -1 23 -4z m1022 -3 c0 -5 -4 -10 -10 -10 -5 0 -10 5 -10 10 0 6 5
10 10 10 6 0 10 -4 10 -10z m347 4 c-3 -3 -12 -4 -19 -1 -8 3 -5 6 6 6 11 1
17 -2 13 -5z m263 2 c0 -3 -4 -8 -10 -11 -5 -3 -10 -1 -10 4 0 6 5 11 10 11 6
0 10 -2 10 -4z m868 -193 l-3 -128 -808 -3 -808 -2 26 -34 c14 -18 25 -37 25
-41 0 -4 -14 11 -30 33 l-30 42 -133 0 c-132 0 -133 0 -159 -27 -58 -61 -68
-162 -24 -237 29 -50 55 -71 114 -92 20 -7 29 -13 19 -14 -31 0 -94 38 -126
77 -60 73 -63 174 -6 257 l24 36 -124 0 -123 0 -13 -37 c-7 -21 -15 -76 -19
-123 -4 -47 -8 -68 -9 -47 l-1 38 -100 -3 c-55 -2 -100 0 -100 5 0 4 44 7 98
7 l98 0 11 63 c6 34 14 70 18 80 7 16 -54 17 -1199 17 l-1206 0 0 130 0 130
2295 0 2296 0 -3 -127z m-1551 -315 c-2 -13 -4 -5 -4 17 -1 22 1 32 4 23 2
-10 2 -28 0 -40z m-21 -76 c-17 -33 -90 -102 -109 -102 -6 0 2 8 18 19 40 24
83 76 92 109 3 15 8 22 10 15 2 -6 -3 -25 -11 -41z m-866 -25 c0 -2 -17 -19
-37 -38 l-38 -34 34 38 c33 34 41 42 41 34z m289 -74 c12 -24 19 -43 16 -43
-5 0 -45 75 -45 86 0 11 6 2 29 -43z m-109 -23 c-6 -11 -13 -20 -16 -20 -2 0
0 9 6 20 6 11 13 20 16 20 2 0 0 -9 -6 -20z m557 14 c-3 -3 -12 -4 -19 -1 -8
3 -5 6 6 6 11 1 17 -2 13 -5z m-577 -47 c0 -1 -24 -25 -52 -52 l-53 -50 50 53
c46 48 55 57 55 49z m175 -17 c10 -11 16 -20 13 -20 -3 0 -13 9 -23 20 -10 11
-16 20 -13 20 3 0 13 -9 23 -20z m70 -70 c10 -11 16 -20 13 -20 -3 0 -13 9
-23 20 -10 11 -16 20 -13 20 3 0 13 -9 23 -20z m1963 3 c5 -17 -26 -29 -40
-15 -6 6 -7 15 -3 22 9 14 37 9 43 -7z m-1448 -27 c0 -2 -7 -7 -16 -10 -8 -3
-12 -2 -9 4 6 10 25 14 25 6z m300 -21 c14 -17 20 -105 8 -105 -5 0 -8 6 -8
14 0 20 -39 65 -40 46 0 -15 -30 35 -30 51 0 15 57 10 70 -6z m1150 -9 c0 -15
-24 -28 -34 -19 -13 14 -5 33 14 33 11 0 20 -6 20 -14z m-3720 -6 c0 -5 -2
-10 -4 -10 -3 0 -8 5 -11 10 -3 6 -1 10 4 10 6 0 11 -4 11 -10z m2050 -36 c0
-2 -15 -4 -32 -3 -27 0 -29 2 -13 8 18 8 45 4 45 -5z m738 -23 c19 0 31 -5 27
-11 -9 -14 -58 -13 -73 2 -7 7 -12 8 -12 2 0 -14 -28 -13 -34 1 -2 7 7 11 28
9 17 -1 46 -2 64 -3z m150 -4 c10 4 13 2 8 -5 -8 -13 -66 -13 -66 0 0 5 5 6
10 3 6 -3 10 -1 10 6 0 10 3 10 11 2 6 -6 18 -9 27 -6z m52 -2 c0 -8 -4 -15
-10 -15 -5 0 -10 7 -10 15 0 8 5 15 10 15 6 0 10 -7 10 -15z m40 4 c0 6 5 11
10 11 6 0 10 -7 10 -15 0 -9 -9 -15 -25 -15 -16 0 -25 6 -25 16 0 14 3 14 15
4 10 -9 15 -9 15 -1z m142 0 c30 1 48 -3 48 -10 0 -6 -6 -9 -14 -6 -8 3 -29 2
-47 -3 -17 -5 -37 -6 -43 -2 -6 3 -19 5 -28 4 -10 -2 -18 1 -18 7 0 11 30 20
44 13 5 -3 31 -4 58 -3z m124 -11 c3 -5 -10 -8 -30 -6 -20 1 -36 7 -36 13 0
13 57 8 66 -7z m-3326 -13 c0 -17 4 -23 14 -19 16 6 21 0 30 -38 3 -16 2 -28
-3 -28 -5 0 -11 10 -13 22 -5 32 -28 35 -28 4 0 -14 -4 -26 -10 -26 -5 0 -10
25 -10 55 0 30 5 55 10 55 6 0 10 -11 10 -25z m460 -1 c0 -15 4 -23 10 -19 16
10 40 -15 40 -41 0 -30 -18 -31 -22 -1 -2 12 -7 22 -13 22 -5 0 -11 -10 -13
-22 -7 -45 -22 -22 -22 32 0 30 5 55 10 55 6 0 10 -12 10 -26z m340 4 c0 -6
-6 -8 -14 -5 -26 10 -27 -7 -1 -27 36 -29 25 -58 -19 -54 -17 2 -29 7 -26 13
3 5 13 8 23 7 23 -4 22 15 -3 28 -24 13 -26 36 -3 48 19 11 43 5 43 -10z
m-945 -20 l7 -33 11 33 c11 34 25 42 32 17 16 -49 18 -50 28 -17 5 17 14 32
18 32 11 0 11 -2 -2 -56 -13 -49 -35 -58 -45 -19 -7 28 -24 24 -24 -6 0 -36
-28 -19 -44 28 -19 56 -19 53 -2 53 7 0 17 -15 21 -32z m410 22 c3 -5 -1 -10
-10 -10 -9 0 -13 5 -10 10 3 6 8 10 10 10 2 0 7 -4 10 -10z m451 -5 c4 -8 1
-22 -6 -30 -10 -12 -10 -18 0 -30 19 -23 3 -31 -20 -10 -18 16 -20 16 -20 2 0
-10 -4 -17 -10 -17 -5 0 -10 23 -10 50 0 49 1 50 30 50 18 0 33 -6 36 -15z
m182 -35 c17 -41 18 -50 6 -50 -7 0 -14 5 -14 10 0 15 -48 12 -53 -2 -2 -7 -7
-10 -11 -7 -9 9 27 99 40 99 6 0 21 -22 32 -50z m1682 34 c0 -2 -9 -4 -21 -4
-11 0 -18 4 -14 10 5 8 35 3 35 -6z m-2399 -1 c7 -48 4 -83 -6 -83 -13 0 -23
43 -17 73 3 17 21 24 23 10z m230 -5 c0 -7 2 -28 3 -45 3 -22 -1 -33 -9 -33
-7 0 -15 15 -18 33 -5 35 0 57 14 57 5 0 9 -6 10 -12z m-271 -49 c0 -26 -3
-29 -34 -29 -27 0 -36 5 -42 22 -8 27 16 47 51 40 20 -3 25 -10 25 -33z m185
31 c3 -5 1 -10 -6 -10 -8 0 -6 -6 4 -18 10 -10 14 -22 10 -25 -11 -11 -55 -8
-48 3 4 6 11 8 16 5 5 -4 9 -2 9 4 0 5 -5 11 -12 13 -6 2 -9 12 -5 21 7 19 23
22 32 7z m253 -2 c18 -18 15 -28 -8 -28 -11 0 -20 -5 -20 -11 0 -6 9 -8 20 -4
11 4 20 2 20 -4 0 -15 -43 -14 -58 1 -16 16 -15 23 4 42 19 19 26 20 42 4z
m-308 -22 c0 -14 -4 -28 -10 -31 -6 -4 -10 7 -10 24 0 17 5 31 10 31 6 0 10
-11 10 -24z m3465 -24 c-11 -11 -27 17 -20 35 6 16 8 16 16 -6 5 -13 7 -26 4
-29z m-990 8 c-3 -5 -10 -10 -16 -10 -5 0 -9 5 -9 10 0 6 7 10 16 10 8 0 12
-4 9 -10z m-188 -66 c-3 -3 -12 -4 -19 -1 -8 3 -5 6 6 6 11 1 17 -2 13 -5z
m-2214 -56 c24 -3 33 -29 21 -56 -6 -13 -8 -11 -13 13 -8 38 -25 39 -29 2 -5
-44 -22 -20 -22 32 0 52 13 79 18 38 2 -18 10 -27 25 -29z m470 0 c25 -3 36
-43 18 -61 -8 -8 -11 -7 -12 4 -3 34 -5 39 -14 39 -5 0 -10 -10 -10 -22 0 -12
-6 -23 -13 -26 -8 -2 -12 12 -12 51 0 56 13 87 18 44 2 -18 10 -27 25 -29z
m577 -14 c0 -40 -4 -55 -12 -52 -14 5 -23 80 -14 105 12 30 26 0 26 -53z
m-1450 6 c0 -27 -4 -50 -10 -50 -5 0 -10 23 -10 50 0 28 5 50 10 50 6 0 10
-22 10 -50z m284 29 c-3 -5 -10 -7 -15 -3 -5 3 -7 10 -3 15 3 5 10 7 15 3 5
-3 7 -10 3 -15z m470 0 c-3 -5 -10 -7 -15 -3 -5 3 -7 10 -3 15 3 5 10 7 15 3
5 -3 7 -10 3 -15z m-423 -6 c6 -45 4 -83 -5 -80 -13 4 -26 54 -19 73 5 15 22
19 24 7z m470 0 c6 -45 4 -83 -5 -80 -13 4 -26 54 -19 73 5 15 22 19 24 7z
m-843 -45 c-2 -21 -9 -32 -22 -34 -25 -4 -43 5 -50 23 -9 23 12 43 46 43 27 0
29 -3 26 -32z m130 -15 c-3 -42 -6 -48 -27 -51 -13 -2 -28 1 -34 7 -8 8 -3 11
16 11 15 0 27 4 27 9 0 5 -7 8 -16 7 -21 -1 -39 27 -31 48 4 10 18 16 37 16
31 0 31 0 28 -47z m90 15 c2 -19 -2 -28 -18 -33 -24 -8 -50 10 -50 35 0 24 10
31 40 28 19 -2 26 -10 28 -30z m72 22 c0 -5 -7 -10 -15 -10 -8 0 -15 -9 -15
-20 0 -11 -4 -20 -10 -20 -5 0 -10 14 -10 30 0 25 4 30 25 30 14 0 25 -4 25
-10z m30 -26 c0 -21 -4 -33 -10 -29 -17 10 -11 65 7 65 2 0 3 -16 3 -36z m278
13 c2 -10 0 -26 -4 -35 -6 -13 -8 -11 -13 13 -7 36 -25 36 -29 0 -4 -29 -22
-24 -22 6 0 10 -4 19 -10 19 -5 0 -10 -9 -10 -19 0 -11 -4 -23 -10 -26 -6 -4
-10 8 -10 30 l0 36 52 -3 c42 -2 54 -7 56 -21z m68 8 c4 -8 10 -15 15 -15 5 0
9 7 9 15 0 20 19 19 27 -1 6 -15 7 -15 20 1 21 29 26 10 7 -26 -16 -32 -17
-32 -31 -13 -11 13 -17 15 -20 7 -8 -21 -22 -15 -38 17 -9 18 -11 30 -5 30 6
0 13 -7 16 -15z m134 -20 c0 -13 -4 -27 -10 -30 -6 -4 -10 8 -10 30 0 22 4 34
10 30 6 -3 10 -17 10 -30z m254 26 c10 -15 -12 -61 -28 -61 -23 0 -48 41 -34
57 12 15 54 18 62 4z m75 -7 c-9 -11 -8 -18 1 -29 17 -21 5 -31 -16 -14 -13
11 -18 11 -21 2 -9 -25 -19 -13 -19 21 0 32 2 34 33 34 28 0 32 -2 22 -14z
m94 -5 c8 -31 -1 -45 -30 -44 -53 0 -58 65 -4 65 21 0 30 -6 34 -21z m127 -15
c0 -21 -4 -33 -10 -29 -5 3 -10 15 -10 26 0 10 -4 19 -10 19 -5 0 -10 -11 -10
-25 0 -14 -4 -25 -10 -25 -5 0 -10 11 -10 25 0 14 -4 25 -10 25 -5 0 -10 -12
-10 -26 0 -37 -24 -25 -28 14 l-3 32 55 0 56 0 0 -36z m95 7 c0 -13 -9 -29
-20 -35 -11 -6 -24 -17 -28 -23 -16 -26 -27 -11 -27 38 l0 50 38 -3 c32 -3 37
-6 37 -27z m124 16 c6 -8 7 -17 3 -21 -4 -4 -7 -13 -7 -19 0 -18 -40 -20 -54
-3 -19 22 -4 56 23 56 13 0 29 -6 35 -13z m-234 -97 c10 -11 16 -20 13 -20 -3
0 -13 9 -23 20 -10 11 -16 20 -13 20 3 0 13 -9 23 -20z m1522 14 c-3 -3 -12
-4 -19 -1 -8 3 -5 6 6 6 11 1 17 -2 13 -5z m80 0 c-3 -3 -12 -4 -19 -1 -8 3
-5 6 6 6 11 1 17 -2 13 -5z m-2149 -64 c-7 -10 -14 -17 -17 -15 -4 4 18 35 25
35 2 0 -1 -9 -8 -20z m-588 -6 c0 -8 -4 -12 -10 -9 -5 3 -10 10 -10 16 0 5 5
9 10 9 6 0 10 -7 10 -16z m2686 4 c4 -4 17 -5 29 -2 13 3 26 1 29 -5 5 -7 -5
-11 -28 -11 -19 0 -38 5 -42 11 -5 8 -9 7 -14 -1 -8 -13 -40 -7 -40 8 0 10 55
10 66 0z m160 2 c14 6 24 6 24 0 0 -5 9 -7 20 -5 11 2 20 0 20 -6 0 -5 -22 -9
-50 -9 -41 0 -50 3 -49 18 0 9 3 12 5 5 4 -8 13 -9 30 -3z m269 0 c-8 -12 1
-13 42 -1 21 6 35 6 39 0 3 -6 12 -8 20 -5 8 3 14 1 14 -4 0 -12 -127 -13
-134 -1 -6 9 3 21 16 21 5 0 6 -4 3 -10z m-3257 -7 c-10 -2 -28 -2 -40 0 -13
2 -5 4 17 4 22 1 32 -1 23 -4z m289 1 c-3 -3 -12 -4 -19 -1 -8 3 -5 6 6 6 11
1 17 -2 13 -5z m2643 -4 c0 -5 -8 -10 -17 -10 -15 0 -16 2 -3 10 19 12 20 12
20 0z m160 0 c0 -5 -7 -10 -15 -10 -8 0 -15 5 -15 10 0 6 7 10 15 10 8 0 15
-4 15 -10z m130 -2 c0 -4 -27 -7 -60 -7 -33 1 -57 5 -55 9 6 10 115 8 115 -2z
m250 -6 c0 -10 -6 -12 -17 -7 -10 4 -30 8 -45 8 -16 0 -28 4 -28 7 0 4 20 7
45 6 32 0 45 -4 45 -14z m-680 -72 c0 -5 -7 -10 -15 -10 -8 0 -15 5 -15 10 0
6 7 10 15 10 8 0 15 -4 15 -10z m-2836 -62 c-5 -7 -3 -8 7 -2 24 15 61 16 57
2 -3 -8 -25 -14 -56 -16 -42 -2 -52 0 -52 12 0 10 9 16 26 16 16 0 23 -4 18
-12z m193 -2 c0 -11 -15 -14 -59 -15 -44 0 -58 4 -58 15 0 11 14 14 58 14 44
0 59 -4 59 -14z m81 -11 c-3 -3 -13 -2 -22 1 -14 5 -15 9 -4 15 13 8 36 -6 26
-16z m5037 -195 c-3 -5 -10 -10 -16 -10 -5 0 -9 5 -9 10 0 6 7 10 16 10 8 0
12 -4 9 -10z m-2439 -12 c6 -4 21 -6 33 -3 11 2 21 0 21 -5 0 -15 -28 -18 -53
-5 -18 9 -27 10 -30 2 -3 -11 -37 -3 -37 10 0 10 51 10 66 1z m610 -13 c-3 -9
-11 -13 -16 -10 -8 5 -7 11 1 21 14 18 24 11 15 -11z m-507 -6 c-15 -9 -32 -2
-24 11 3 5 13 6 21 3 12 -4 13 -8 3 -14z m41 5 c0 -8 -5 -12 -10 -9 -6 4 -8
11 -5 16 9 14 15 11 15 -7z m68 10 c12 -4 22 -11 22 -16 0 -6 -8 -7 -17 -3
-10 5 -26 8 -35 9 -10 0 -18 4 -18 8 0 9 17 10 48 2z m240 -5 c13 1 21 -3 18
-7 -3 -5 -20 -7 -38 -6 -18 1 -52 3 -75 3 -24 1 -43 5 -43 9 0 5 26 7 58 5 31
-2 67 -4 80 -4z m-148 -3 c0 -2 -7 -6 -15 -10 -8 -3 -15 -1 -15 4 0 6 7 10 15
10 8 0 15 -2 15 -4z m270 -5 c0 -10 -26 -9 -36 2 -4 4 2 7 14 7 12 0 22 -4 22
-9z m-615 -71 c-3 -5 -10 -10 -16 -10 -5 0 -9 5 -9 10 0 6 7 10 16 10 8 0 12
-4 9 -10z m1233 -64 c15 -21 49 -54 77 -72 27 -19 45 -34 40 -34 -30 0 -120
81 -146 132 -20 39 -27 68 -8 33 6 -11 23 -37 37 -59z m164 54 c43 -26 104
-26 147 1 18 11 35 18 37 16 7 -7 -41 -35 -72 -43 -16 -4 -32 -12 -36 -18 -6
-8 -8 -8 -8 0 0 7 -15 15 -32 18 -18 4 -44 15 -58 26 -33 25 -19 25 22 0z
m358 15 c0 -13 -31 -65 -39 -65 -10 0 21 69 32 70 4 0 7 -2 7 -5z m698 -20
c150 -36 284 -146 343 -283 32 -73 21 -71 -15 3 -76 159 -231 269 -389 277
l-52 3 0 -110 0 -110 120 -5 120 -6 -120 -3 c-96 -3 -112 -5 -78 -11 138 -28
229 -168 193 -299 -25 -95 -98 -163 -191 -179 l-44 -8 -1 -121 -1 -122 36 -4
c20 -2 0 -4 -44 -4 -44 0 -63 2 -42 4 36 4 37 6 36 41 0 20 -3 31 -6 25 -7
-19 -20 -16 -26 7 -4 15 -1 20 11 18 15 -3 17 8 17 77 l0 79 -45 8 c-89 15
-172 98 -166 166 3 31 8 37 30 40 27 3 36 -12 12 -21 -7 -3 -16 -20 -20 -38
-5 -28 -1 -38 26 -67 46 -48 108 -74 177 -74 138 0 235 95 236 232 0 112 -65
195 -176 224 -94 24 -184 -4 -245 -76 -32 -39 -44 -68 -54 -133 l-8 -50 -1 45
c-1 49 27 121 62 158 29 31 88 61 140 72 40 7 40 8 10 9 -18 1 -33 5 -33 9 0
5 14 7 30 4 l30 -4 0 116 c0 89 -3 116 -13 116 -43 0 -141 -26 -195 -52 -77
-36 -93 -32 -20 5 111 56 235 70 356 42z m-14 -117 c47 -21 -8 -51 -58 -32
-28 11 -15 29 31 43 1 1 13 -4 27 -11z m-1504 -13 c25 -30 -15 -85 -42 -56
-11 12 -10 13 4 8 10 -3 20 -2 23 3 4 6 -1 10 -9 10 -19 0 -29 17 -22 35 7 19
30 19 46 0z m93 -17 c6 -43 1 -50 -26 -35 -12 6 -23 13 -25 14 -6 3 30 53 38
53 4 0 10 -15 13 -32z m45 -10 c-1 -38 -2 -39 -5 -10 -2 18 -9 30 -14 27 -10
-7 -12 8 -2 18 16 16 23 4 21 -35z m1240 10 c-2 -24 -8 -32 -25 -33 -19 -1
-23 3 -23 27 0 17 4 27 10 23 6 -3 10 -1 10 4 0 6 7 11 16 11 11 0 14 -8 12
-32z m337 15 c20 -28 -5 -43 -72 -43 -58 0 -59 0 -57 28 1 15 3 28 3 30 1 1
26 2 57 2 42 0 60 -4 69 -17z m-397 -30 c-4 -21 -39 -24 -46 -4 -3 10 0 12 12
8 9 -4 16 -2 16 3 0 6 5 10 11 10 6 0 9 -8 7 -17z m-365 -115 c-21 -26 -45
-120 -46 -180 -2 -55 0 -63 16 -60 13 2 17 -4 17 -31 0 -28 -4 -36 -24 -41
-18 -4 -29 -18 -41 -55 -23 -71 -83 -159 -145 -213 -29 -25 -50 -50 -46 -56 3
-5 -6 -10 -22 -11 -15 0 -40 -2 -57 -3 -25 -3 -30 1 -30 20 0 29 18 30 26 0
l6 -23 4 24 c2 14 10 26 17 29 7 2 10 -2 6 -12 -3 -9 -1 -16 5 -16 6 0 11 5
11 10 0 6 8 10 18 10 25 0 113 86 151 146 41 64 67 142 52 157 -16 16 -14 42
4 57 26 21 17 30 -32 32 l-48 2 46 3 46 4 12 70 c13 78 38 149 53 149 7 0 7
-4 1 -12z m-1150 -77 c3 -13 -1 -21 -14 -24 -20 -5 -23 1 -13 27 8 22 21 20
27 -3z m29 -6 c3 -14 1 -25 -3 -25 -5 0 -9 11 -9 25 0 14 2 25 4 25 2 0 6 -11
8 -25z m45 14 c-9 -6 -15 -15 -11 -21 4 -6 10 -5 15 3 6 10 9 10 9 2 0 -17
-14 -23 -29 -13 -18 11 -6 40 16 40 17 -1 17 -1 0 -11z m60 -5 c8 -21 -13 -42
-28 -27 -13 13 -5 43 11 43 6 0 13 -7 17 -16z m43 -5 c0 -11 -4 -18 -9 -15 -5
4 -12 0 -14 -6 -3 -7 -6 -1 -6 15 -1 18 4 27 14 27 8 0 15 -9 15 -21z m30 -5
c0 -8 -4 -14 -10 -14 -5 0 -10 9 -10 21 0 11 5 17 10 14 6 -3 10 -13 10 -21z
m30 6 c0 -11 -4 -20 -10 -20 -5 0 -10 9 -10 20 0 11 5 20 10 20 6 0 10 -9 10
-20z m40 10 c5 8 9 5 12 -8 4 -15 0 -19 -17 -19 -16 0 -22 5 -20 16 5 26 6 27
12 12 4 -10 7 -10 13 -1z m60 0 c5 8 10 13 11 10 0 -3 2 -13 4 -22 2 -13 -3
-18 -21 -18 -18 0 -24 5 -24 23 0 18 2 19 10 7 9 -13 11 -13 20 0z m-590 -370
c0 -231 -4 -370 -10 -370 -6 0 -10 9 -10 20 0 19 -7 20 -165 20 -158 0 -165 1
-165 20 0 11 -7 20 -15 20 -8 0 -15 7 -15 16 0 14 3 14 15 4 13 -11 15 19 15
259 l0 271 -240 0 -240 0 0 -260 c0 -167 4 -260 10 -260 6 0 10 -8 10 -17 0
-15 -2 -16 -10 -3 -7 11 -10 7 -10 -17 0 -23 -5 -33 -15 -33 -13 0 -15 39 -15
295 l0 295 -240 0 -240 0 0 -295 c0 -256 -2 -295 -15 -295 -13 0 -15 39 -15
295 l0 295 -240 0 -240 0 0 -295 c0 -256 -2 -295 -15 -295 -13 0 -15 39 -15
295 l0 295 -240 0 -240 0 0 -295 0 -295 -820 0 -820 0 0 350 0 350 2000 0
2000 0 0 -370z m2337 338 c-3 -8 -6 -5 -6 6 -1 11 2 17 5 13 3 -3 4 -12 1 -19z
m-2307 -18 c0 -5 -4 -10 -10 -10 -5 0 -10 5 -10 10 0 6 5 10 10 10 6 0 10 -4
10 -10z m2317 -52 c-2 -13 -4 -5 -4 17 -1 22 1 32 4 23 2 -10 2 -28 0 -40z
m-1997 -54 c0 -14 4 -23 9 -20 19 12 41 -7 41 -35 0 -16 -4 -29 -10 -29 -5 0
-10 12 -10 26 0 31 -23 28 -28 -4 -7 -44 -22 -20 -22 33 0 30 5 55 10 55 6 0
10 -12 10 -26z m462 3 c-2 -10 6 -17 20 -19 18 -2 24 -10 26 -35 2 -19 -1 -33
-7 -33 -6 0 -11 12 -11 26 0 31 -23 28 -28 -4 -7 -44 -22 -20 -22 34 0 40 3
54 13 51 6 -2 11 -11 9 -20z m363 12 c12 -1 3 -6 -20 -13 -39 -12 -39 -13 -17
-25 34 -18 26 -55 -13 -59 -23 -3 -36 -13 -58 -49 -15 -25 -30 -43 -34 -40 -3
4 6 20 21 37 30 36 33 50 11 50 -9 0 -18 7 -21 15 -4 8 -10 15 -15 15 -5 0 -9
-7 -9 -15 0 -8 -4 -15 -10 -15 -5 0 -10 23 -10 50 0 49 1 50 30 50 35 0 49
-23 32 -50 -9 -14 -7 -21 7 -34 17 -16 19 -15 25 6 5 14 9 18 13 11 2 -7 12
-13 21 -13 13 1 10 6 -10 23 -16 13 -28 27 -28 33 0 19 25 35 45 30 11 -3 29
-6 40 -7z m76 -44 c23 -60 22 -55 4 -55 -8 0 -15 5 -15 10 0 6 -9 10 -19 10
-11 0 -23 -4 -26 -10 -12 -19 -26 -10 -19 12 16 53 36 89 46 86 5 -2 19 -26
29 -53z m179 0 c0 -30 -4 -55 -9 -55 -9 0 -22 90 -14 102 13 22 23 2 23 -47z
m380 37 c0 -9 10 -22 23 -27 27 -12 38 -65 13 -65 -10 0 -16 9 -16 25 0 14 -4
25 -10 25 -5 0 -10 -12 -10 -26 0 -16 -5 -24 -12 -22 -19 7 -21 108 -2 108 8
0 14 -8 14 -18z m537 -59 c-2 -16 -4 -3 -4 27 0 30 2 43 4 28 2 -16 2 -40 0
-55z m-2139 35 c10 -33 11 -32 27 17 7 25 21 17 32 -17 l11 -33 7 33 c4 17 13
32 21 32 11 0 10 -9 -1 -47 -8 -27 -15 -49 -15 -50 0 -2 -6 -3 -14 -3 -8 0
-17 12 -21 28 l-7 27 -10 -27 c-14 -39 -33 -35 -46 11 -15 47 -15 61 -2 61 5
0 13 -15 18 -32z m412 22 c0 -5 -4 -10 -10 -10 -5 0 -10 5 -10 10 0 6 5 10 10
10 6 0 10 -4 10 -10z m1100 0 c0 -5 -7 -10 -15 -10 -8 0 -15 5 -15 10 0 6 7
10 15 10 8 0 15 -4 15 -10z m-1183 -19 c10 -15 10 -21 0 -24 -9 -3 -9 -9 1
-27 12 -19 11 -21 -4 -18 -19 3 -33 42 -26 71 6 22 14 22 29 -2z m230 0 c10
-15 10 -21 0 -24 -9 -3 -9 -9 1 -27 12 -19 11 -21 -4 -18 -19 3 -33 42 -26 71
6 22 14 22 29 -2z m994 12 c6 -48 6 -93 -1 -93 -20 0 -34 37 -31 83 1 16 30
25 32 10z m-1271 -50 c0 -30 -3 -33 -30 -33 -37 0 -58 31 -35 53 8 8 26 14 40
13 21 -1 25 -6 25 -33z m195 27 c3 -5 -2 -10 -11 -10 -17 0 -16 -1 1 -13 10
-8 15 -19 11 -25 -9 -14 -46 -16 -46 -2 0 5 8 7 18 4 15 -5 15 -4 -2 10 -10 8
-16 22 -13 31 7 17 33 20 42 5z m253 -2 c19 -19 14 -28 -14 -28 -14 0 -23 -4
-19 -10 3 -5 12 -7 20 -3 8 3 15 0 15 -7 0 -6 -11 -10 -27 -8 -21 2 -29 9 -31
27 -5 35 31 54 56 29z m582 -33 c0 -25 -6 -48 -15 -55 -15 -13 -55 -5 -55 11
0 6 9 8 19 4 11 -3 22 -1 26 5 3 5 -2 10 -13 10 -29 0 -46 24 -33 49 8 13 21
19 41 19 28 -1 30 -3 30 -43z m85 29 c19 -19 16 -33 -11 -51 -17 -11 -23 -10
-42 3 -26 18 -27 27 -6 48 20 20 38 20 59 0z m109 0 c11 -28 6 -54 -9 -54 -10
0 -15 11 -15 35 0 36 13 47 24 19z m264 3 c17 -12 15 -57 -3 -57 -9 0 -15 10
-15 26 0 14 -4 23 -10 19 -5 -3 -10 -15 -10 -26 0 -10 -4 -19 -10 -19 -5 0
-10 11 -10 25 0 14 -4 25 -10 25 -5 0 -10 -11 -10 -25 0 -16 -6 -25 -15 -25
-15 0 -22 50 -8 63 8 9 84 4 101 -6z m-1358 -27 c0 -16 -4 -30 -10 -30 -5 0
-10 14 -10 30 0 17 5 30 10 30 6 0 10 -13 10 -30z m1717 -52 c-3 -8 -6 -5 -6
6 -1 11 2 17 5 13 3 -3 4 -12 1 -19z m-929 -104 c31 -61 82 -119 142 -164 48
-36 55 -39 62 -23 7 19 8 19 13 -11 2 -10 10 -23 17 -27 7 -5 9 -9 3 -9 -5 0
-23 9 -40 20 -36 24 -45 25 -45 6 0 -11 -10 -14 -34 -13 -35 2 -36 12 -6 34
15 11 11 18 -37 68 -52 53 -124 180 -122 215 0 8 6 -1 14 -21 7 -19 22 -53 33
-75z m891 1 c-43 -87 -130 -174 -221 -220 -39 -19 -78 -35 -87 -35 -9 0 10 11
42 24 70 29 97 46 155 100 50 46 102 122 123 179 7 21 15 34 17 28 2 -6 -11
-40 -29 -76z m-1879 46 c0 -13 8 -21 23 -23 17 -2 23 -11 25 -35 2 -19 -1 -33
-7 -33 -6 0 -11 11 -11 25 0 16 -6 25 -15 25 -9 0 -15 -10 -15 -26 0 -14 -4
-23 -10 -19 -5 3 -10 28 -10 56 0 27 5 49 10 49 6 0 10 -9 10 -19z m600 -36
c0 -30 -4 -55 -9 -55 -11 0 -19 54 -13 86 8 44 22 25 22 -31z m-690 35 c0 -5
-4 -10 -9 -10 -6 0 -13 5 -16 10 -3 6 1 10 9 10 9 0 16 -4 16 -10z m44 -12
c10 -10 11 -17 2 -31 -8 -14 -8 -20 4 -27 17 -11 7 -25 -13 -17 -16 6 -28 53
-20 74 6 16 10 16 27 1z m-174 -25 c9 -17 11 -17 21 1 11 19 12 19 25 1 12
-16 14 -17 20 -2 7 19 24 23 24 7 0 -6 -8 -22 -17 -36 -16 -24 -18 -25 -30 -9
-11 17 -13 17 -19 2 -9 -25 -19 -21 -37 18 -17 35 -7 50 13 18z m130 -18 c0
-19 -4 -35 -10 -35 -5 0 -10 16 -10 35 0 19 5 35 10 35 6 0 10 -16 10 -35z
m258 13 c3 -14 -4 -18 -25 -19 l-28 -1 30 -7 c29 -7 30 -7 6 -15 -31 -11 -56
13 -46 43 8 27 58 26 63 -1z m71 6 c-9 -11 -8 -18 1 -29 16 -19 5 -32 -13 -17
-10 9 -16 9 -25 0 -17 -17 -27 -2 -12 17 9 11 9 19 2 28 -9 10 -4 13 24 14 29
1 33 -1 23 -13z m91 -18 c0 -29 -3 -33 -26 -32 -55 2 -59 66 -4 66 27 0 30 -3
30 -34z m131 26 c0 -4 2 -17 5 -29 2 -12 -1 -25 -6 -28 -6 -3 -10 -36 -10 -72
0 -53 3 -64 15 -60 8 4 17 2 20 -3 4 -6 -1 -10 -9 -10 -22 0 -20 -17 2 -23 13
-4 11 -5 -5 -6 -33 -2 -31 -38 2 -44 23 -4 23 -4 -2 -3 -25 1 -28 5 -29 39 -1
39 -14 66 -14 29 0 -12 -4 -22 -9 -22 -13 0 -8 34 7 43 15 10 17 177 2 177 -5
0 -10 -11 -10 -25 0 -14 -4 -25 -10 -25 -5 0 -10 11 -10 25 0 31 -17 33 -22 3
-3 -26 -21 -28 -26 -3 -7 34 6 44 57 43 28 0 51 -3 52 -6z m94 -22 c0 -16 -8
-28 -22 -35 -13 -5 -23 -15 -23 -22 0 -7 -7 -13 -15 -13 -11 0 -15 12 -15 51
l0 50 38 -3 c32 -3 37 -6 37 -28z m124 17 c13 -17 5 -27 -23 -28 -18 -1 -18
-2 4 -9 22 -6 23 -8 8 -15 -37 -15 -72 21 -48 50 15 19 44 19 59 2z m-354
-207 c0 -18 -6 -26 -23 -28 -13 -2 -25 3 -28 12 -10 26 4 48 28 44 17 -2 23
-10 23 -28z m187 3 c-3 -16 -7 -22 -10 -15 -4 13 4 42 11 42 2 0 2 -12 -1 -27z
m332 -6 c-3 -9 -11 -17 -16 -17 -6 0 -5 6 2 15 9 11 9 15 1 15 -7 0 -9 5 -5
11 10 16 26 -5 18 -24z m71 3 c3 5 1 10 -5 10 -6 0 -8 5 -4 11 9 16 26 -4 19
-24 -8 -19 -61 -18 -59 1 3 34 6 36 24 14 11 -13 21 -18 25 -12z m49 -3 c-3
-9 -11 -17 -16 -17 -6 0 -5 6 2 15 9 11 9 15 1 15 -7 0 -9 5 -5 11 10 16 26
-5 18 -24z m280 18 c-4 -8 -1 -15 6 -15 6 0 8 -4 5 -10 -3 -5 -11 -10 -16 -10
-6 0 -8 4 -5 9 4 5 1 11 -6 13 -6 2 -8 10 -4 16 10 17 26 15 20 -3z m124 -15
c-1 -31 -18 -32 -18 -1 0 15 8 31 16 31 1 0 2 -13 2 -30z m108 0 c0 -11 -5
-21 -10 -23 -10 -2 -18 32 -10 45 9 14 21 0 20 -22z m-1709 -12 c-3 -7 -5 -2
-5 12 0 14 2 19 5 13 2 -7 2 -19 0 -25z m55 10 c-2 -10 -6 -18 -7 -18 -1 0 -5
8 -7 18 -3 11 0 19 7 19 7 0 10 -8 7 -19z m71 3 c3 -15 0 -19 -14 -18 -22 1
-21 0 -13 21 8 22 21 20 27 -3z m47 -1 c0 -9 -7 -17 -15 -17 -8 0 -15 8 -15
17 0 9 7 17 15 17 8 0 15 -8 15 -17z m31 3 c0 -15 2 -15 9 2 8 19 9 19 9 -3 1
-17 -4 -23 -16 -20 -17 3 -28 38 -12 38 5 0 9 -8 10 -17z m56 -3 c1 -9 -5 -17
-13 -17 -8 0 -14 8 -14 17 0 9 6 17 13 17 7 0 14 -8 14 -17z m50 2 c0 -10 -9
-18 -19 -18 -11 0 -18 8 -18 18 0 11 7 18 19 18 13 0 19 -6 18 -18z m43 -6 c0
-7 -7 -13 -15 -13 -15 0 -20 18 -9 30 9 9 24 -2 24 -17z m30 13 c0 -8 5 -8 15
1 13 10 15 9 15 -9 0 -16 -6 -21 -25 -21 -18 0 -25 5 -25 20 0 11 5 20 10 20
6 0 10 -5 10 -11z m250 -9 c0 -11 -7 -20 -15 -20 -8 0 -15 9 -15 20 0 11 7 20
15 20 8 0 15 -9 15 -20z m167 8 c7 18 19 15 19 -6 0 -12 -8 -18 -23 -18 -17 0
-23 6 -23 21 0 17 2 18 11 5 8 -11 12 -12 16 -2z m207 -20 c-3 -4 -11 -5 -20
-1 -11 4 -12 8 -3 20 10 11 14 11 20 1 4 -6 6 -15 3 -20z m531 22 c11 9 12 7
8 -9 -4 -17 -23 -31 -23 -17 0 2 -2 10 -3 18 -2 7 -2 9 1 5 2 -4 10 -3 17 3z
m32 -22 c-3 -7 -5 -2 -5 12 0 14 2 19 5 13 2 -7 2 -19 0 -25z m-1550 0 c-3 -8
-6 -5 -6 6 -1 11 2 17 5 13 3 -3 4 -12 1 -19z m-1907 -11 c0 -7 -11 -14 -26
-15 -15 -1 -23 2 -19 8 4 6 10 8 15 5 5 -3 11 -1 15 5 8 14 15 13 15 -3z m500
2 c0 -6 7 -9 15 -5 8 3 15 0 15 -7 0 -21 -46 -17 -47 4 -1 11 2 19 8 19 5 0 9
-5 9 -11z m-470 -14 c0 -8 -4 -15 -10 -15 -5 0 -10 7 -10 15 0 8 5 15 10 15 6
0 10 -7 10 -15z m70 5 c0 -12 -29 -20 -35 -9 -4 5 -11 7 -16 4 -5 -4 -9 -2 -9
3 0 5 14 9 30 10 17 0 30 -3 30 -8z m34 -11 c-3 -5 -10 -7 -15 -3 -5 3 -7 10
-3 15 3 5 10 7 15 3 5 -3 7 -10 3 -15z m72 -6 c-10 -10 -19 5 -10 18 6 11 8
11 12 0 2 -7 1 -15 -2 -18z m39 17 c3 -5 -1 -10 -10 -10 -9 0 -13 5 -10 10 3
6 8 10 10 10 2 0 7 -4 10 -10z m316 -13 c-13 -13 -26 -3 -16 12 3 6 11 8 17 5
6 -4 6 -10 -1 -17z m34 13 c3 -5 1 -10 -4 -10 -6 0 -11 5 -11 10 0 6 2 10 4
10 3 0 8 -4 11 -10z m35 0 c0 -5 -4 -10 -10 -10 -5 0 -10 5 -10 10 0 6 5 10
10 10 6 0 10 -4 10 -10z m50 0 c0 -5 -5 -10 -11 -10 -5 0 -7 5 -4 10 3 6 8 10
11 10 2 0 4 -4 4 -10z m40 -4 c0 -8 -4 -17 -9 -20 -10 -7 -23 19 -14 28 11 11
23 6 23 -8z m1997 -12 c-3 -3 -12 -4 -19 -1 -8 3 -5 6 6 6 11 1 17 -2 13 -5z
m-40 -10 c-3 -3 -12 -4 -19 -1 -8 3 -5 6 6 6 11 1 17 -2 13 -5z m776 -11 c-7
-2 -19 -2 -25 0 -7 3 -2 5 12 5 14 0 19 -2 13 -5z m210 0 c-7 -2 -19 -2 -25 0
-7 3 -2 5 12 5 14 0 19 -2 13 -5z m-4276 -35 c-3 -7 -5 -2 -5 12 0 14 2 19 5
13 2 -7 2 -19 0 -25z m63 11 c0 -5 -4 -9 -10 -9 -5 0 -10 7 -10 16 0 8 5 12
10 9 6 -3 10 -10 10 -16z m97 -1 c-3 -8 -6 -5 -6 6 -1 11 2 17 5 13 3 -3 4
-12 1 -19z m63 7 c0 -8 -7 -15 -15 -15 -26 0 -18 20 13 29 1 1 2 -6 2 -14z
m83 0 c4 -8 2 -17 -3 -20 -6 -4 -10 3 -10 14 0 25 6 27 13 6z m281 4 c-5 -9 1
-10 20 -5 19 5 26 3 26 -8 0 -16 -51 -17 -62 -2 -8 12 -1 26 13 26 6 0 7 -5 3
-11z m546 -10 c0 -12 -5 -16 -15 -13 -8 4 -15 12 -15 18 0 7 7 13 15 13 8 0
15 -8 15 -18z m184 6 c3 -8 1 -15 -4 -15 -6 0 -10 7 -10 15 0 8 2 15 4 15 2 0
6 -7 10 -15z m276 -2 c0 -7 -7 -13 -15 -13 -8 0 -15 6 -15 13 0 8 7 14 15 14
8 0 15 -6 15 -14z m67 2 c-2 -5 -12 -10 -22 -10 -10 0 -20 5 -22 10 -1 6 8 10
22 10 14 0 24 -4 22 -10z m50 -7 c-3 -8 -6 -5 -6 6 -1 11 2 17 5 13 3 -3 4
-12 1 -19z m83 1 c0 -5 -4 -9 -10 -9 -5 0 -10 7 -10 16 0 8 5 12 10 9 6 -3 10
-10 10 -16z m-1545 2 c3 -5 1 -12 -5 -16 -5 -3 -10 1 -10 9 0 18 6 21 15 7z
m115 -1 c0 -5 -4 -10 -10 -10 -5 0 -10 5 -10 10 0 6 5 10 10 10 6 0 10 -4 10
-10z m35 -20 c-5 -8 -11 -8 -17 -2 -6 6 -7 16 -3 22 5 8 11 8 17 2 6 -6 7 -16
3 -22z m265 14 c0 -8 -4 -12 -10 -9 -5 3 -10 10 -10 16 0 5 5 9 10 9 6 0 10
-7 10 -16z m25 6 c3 -5 1 -10 -4 -10 -6 0 -11 5 -11 10 0 6 2 10 4 10 3 0 8
-4 11 -10z m35 1 c0 -6 -4 -13 -10 -16 -5 -3 -10 1 -10 9 0 9 5 16 10 16 6 0
10 -4 10 -9z m110 -13 c0 -10 -4 -18 -10 -18 -5 0 -10 5 -10 10 0 6 -9 10 -21
10 -11 0 -18 3 -16 8 3 4 17 7 31 7 18 0 26 -5 26 -17z m330 12 c0 -5 -5 -10
-11 -10 -5 0 -7 5 -4 10 3 6 8 10 11 10 2 0 4 -4 4 -10z m30 0 c0 -5 -4 -10
-10 -10 -5 0 -10 5 -10 10 0 6 5 10 10 10 6 0 10 -4 10 -10z m79 -11 c-15 -9
-32 -2 -24 11 3 5 13 6 21 3 12 -4 13 -8 3 -14z m271 11 c0 -5 -4 -10 -10 -10
-5 0 -10 5 -10 10 0 6 5 10 10 10 6 0 10 -4 10 -10z m195 0 c3 -5 1 -10 -4
-10 -6 0 -11 5 -11 10 0 6 2 10 4 10 3 0 8 -4 11 -10z m-508 -6 c-3 -3 -12 -4
-19 -1 -8 3 -5 6 6 6 11 1 17 -2 13 -5z m633 2 c0 -11 -19 -15 -25 -6 -3 5 1
10 9 10 9 0 16 -2 16 -4z m30 0 c0 -3 -4 -8 -10 -11 -5 -3 -10 -1 -10 4 0 6 5
11 10 11 6 0 10 -2 10 -4z m30 -5 c0 -6 -4 -13 -10 -16 -5 -3 -10 1 -10 9 0 9
5 16 10 16 6 0 10 -4 10 -9z m-1510 -144 c0 -4 5 -5 10 -2 12 8 13 -5 1 -24
-7 -11 -11 -8 -16 10 -8 23 -8 23 -16 4 -6 -15 -8 -10 -8 20 0 37 1 39 14 21
8 -11 15 -24 15 -29z m44 11 c-1 -13 -3 -27 -4 -33 -1 -5 -6 1 -11 14 -10 26
-5 56 9 47 5 -3 8 -15 6 -28z m191 -7 c3 -8 -1 -21 -8 -29 -13 -12 -14 -10 -9
13 4 21 1 26 -9 23 -8 -3 -13 -12 -11 -22 2 -9 -2 -16 -8 -16 -5 0 -10 15 -10
34 0 33 1 34 25 23 13 -7 27 -18 30 -26z m168 8 c9 7 12 3 12 -13 0 -14 -6
-22 -17 -22 -14 0 -18 8 -17 36 1 24 3 28 6 12 3 -16 8 -20 16 -13z m-297 -13
c1 -11 -5 -25 -14 -32 -15 -11 -13 -13 15 -11 33 2 42 10 23 22 -15 9 -12 35
6 42 8 3 20 1 26 -5 7 -7 4 -10 -8 -9 -11 1 -19 -4 -19 -13 0 -9 7 -14 19 -12
17 3 18 1 8 -11 -11 -13 -4 -15 47 -14 53 0 58 2 48 17 -14 23 -1 52 20 48 19
-3 32 -48 15 -48 -6 0 -8 9 -5 20 4 14 0 20 -11 20 -33 0 -7 -54 27 -56 9 0
44 -1 78 -2 53 -2 59 -4 46 -17 -9 -8 -14 -23 -13 -32 3 -16 16 -18 97 -21
119 -4 135 1 161 43 l20 35 604 0 604 0 0 -45 c0 -29 -4 -45 -12 -46 -10 0
-10 -2 0 -6 15 -6 18 -348 2 -358 -7 -4 -10 55 -10 169 l0 176 -1987 2 -1988
3 -3 43 c-2 31 -8 42 -20 44 -9 0 12 4 48 8 36 4 449 8 918 9 l852 1 10 -24
c17 -46 45 -56 162 -56 l108 0 0 29 c0 16 -6 32 -12 34 -12 5 74 12 95 8 5 -1
6 9 3 21 -3 13 -3 17 0 11 3 -7 10 -13 15 -13 12 0 8 32 -6 43 -6 5 -2 7 9 5
11 -2 20 -12 22 -22z m252 0 c2 -10 -1 -23 -7 -29 -16 -16 -44 14 -35 37 8 22
38 17 42 -8z m1862 -54 c0 -21 -5 -28 -20 -28 -15 0 -20 7 -20 28 0 21 5 28
20 28 15 0 20 -7 20 -28z m54 13 c-4 -8 -11 -15 -18 -15 -6 0 -4 -4 4 -10 18
-11 7 -25 -15 -17 -8 4 -15 18 -15 32 0 20 5 25 25 25 18 0 23 -4 19 -15z m50
-7 c8 -33 8 -33 -19 -34 -27 -2 -31 7 -15 37 14 25 26 24 34 -3z m63 6 c7 -19
-20 -49 -36 -40 -6 4 -11 18 -11 32 0 17 5 24 20 24 11 0 23 -7 27 -16z m64 4
c0 -10 2 -10 6 0 2 6 11 12 19 12 11 0 14 -8 12 -27 -3 -24 -8 -28 -33 -28
-25 0 -30 4 -33 28 -2 19 1 27 12 27 9 0 16 -6 17 -12z m93 -5 c8 -19 -17 -48
-33 -39 -6 4 -11 18 -11 32 0 28 34 34 44 7z m54 -13 c-1 -23 -4 -27 -14 -20
-8 8 -14 7 -17 -2 -3 -7 -6 2 -6 20 -1 25 3 32 18 32 15 0 19 -7 19 -30z m52
15 c0 -8 -6 -15 -12 -15 -9 0 -8 -3 2 -10 18 -11 7 -25 -15 -17 -23 10 -20 57
5 57 11 0 20 -7 20 -15z m159 -32 c-13 -15 -33 -18 -24 -3 4 6 -5 10 -19 10
-14 0 -26 5 -26 10 0 6 9 10 20 10 11 0 20 5 20 12 0 6 9 3 20 -7 15 -14 17
-21 9 -32z m-5294 -18 l0 -50 -82 -3 -83 -3 0 50 c0 30 5 51 13 55 6 3 44 4
82 3 l70 -2 0 -50z m6352 -32 c-3 -10 -5 -2 -5 17 0 19 2 27 5 18 2 -10 2 -26
0 -35z m-240 -5 c-3 -8 -6 -5 -6 6 -1 11 2 17 5 13 3 -3 4 -12 1 -19z m230
-60 c-3 -7 -5 -2 -5 12 0 14 2 19 5 13 2 -7 2 -19 0 -25z m-1594 -14 c-23 -19
-59 -54 -79 -77 -25 -29 -30 -32 -15 -10 21 32 118 123 130 123 3 0 -13 -16
-36 -36z m560 -43 c19 -21 40 -50 46 -63 11 -21 10 -21 -6 2 -9 14 -44 52 -77
85 -34 32 -47 49 -30 38 17 -12 47 -40 67 -62z m-306 -38 c-2 -21 -4 -4 -4 37
0 41 2 58 4 38 2 -21 2 -55 0 -75z m1074 70 c-19 -37 -110 -103 -140 -103 -8
0 9 12 38 26 28 15 64 42 79 60 30 38 38 43 23 17z m564 -22 c0 -34 -30 -51
-51 -29 -25 24 -10 60 24 56 21 -2 27 -8 27 -27z m-335 -50 c-28 -56 -35 -52
-8 4 12 24 23 43 26 41 2 -2 -6 -22 -18 -45z m570 -277 c0 -187 -3 -283 -10
-279 -6 4 -10 108 -10 279 0 240 3 286 17 286 2 0 3 -129 3 -286z m-630 183
c0 -2 -19 -21 -42 -42 l-43 -40 40 43 c36 39 45 47 45 39z m-1860 -427 c0
-102 -4 -171 -10 -175 -7 -4 -10 57 -10 175 0 118 3 179 10 175 6 -4 10 -73
10 -175z"/>
<path d="M1390 4557 c0 -41 30 -64 60 -45 11 7 20 21 20 30 0 20 -15 24 -25 8
-3 -5 -1 -10 5 -10 6 0 8 -4 5 -10 -8 -13 -42 -13 -51 1 -4 8 1 9 16 4 16 -5
20 -4 15 4 -3 6 4 20 17 31 13 11 18 19 13 20 -6 0 -16 -5 -23 -12 -9 -9 -15
-9 -24 0 -20 20 -28 14 -28 -21z m30 9 c0 -3 -4 -8 -10 -11 -5 -3 -10 -1 -10
4 0 6 5 11 10 11 6 0 10 -2 10 -4z"/>
<path d="M2461 4544 c0 -11 3 -14 6 -6 3 7 2 16 -1 19 -3 4 -6 -2 -5 -13z"/>
<path d="M2960 4550 c0 -6 7 -10 15 -10 8 0 15 2 15 4 0 2 -7 6 -15 10 -8 3
-15 1 -15 -4z"/>
<path d="M3555 4550 c-3 -5 -1 -10 4 -10 6 0 11 5 11 10 0 6 -2 10 -4 10 -3 0
-8 -4 -11 -10z"/>
<path d="M3018 4543 c7 -3 16 -2 19 1 4 3 -2 6 -13 5 -11 0 -14 -3 -6 -6z"/>
<path d="M2240 3756 c0 -9 5 -16 10 -16 6 0 10 4 10 9 0 6 -4 13 -10 16 -5 3
-10 -1 -10 -9z"/>
<path d="M2430 3735 c0 -8 4 -15 10 -15 5 0 7 7 4 15 -4 8 -8 15 -10 15 -2 0
-4 -7 -4 -15z"/>
<path d="M1654 3719 c-10 -17 13 -36 27 -22 12 12 4 33 -11 33 -5 0 -12 -5
-16 -11z"/>
<path d="M1420 3544 c0 -17 22 -14 28 4 2 7 -3 12 -12 12 -9 0 -16 -7 -16 -16z"/>
<path d="M1556 3563 c-12 -12 -6 -33 9 -33 8 0 15 6 15 14 0 17 -14 28 -24 19z"/>
<path d="M1642 3548 c6 -18 28 -21 28 -4 0 9 -7 16 -16 16 -9 0 -14 -5 -12
-12z"/>
<path d="M2488 3533 c7 -3 16 -2 19 1 4 3 -2 6 -13 5 -11 0 -14 -3 -6 -6z"/>
<path d="M2642 3548 c6 -18 28 -21 28 -4 0 9 -7 16 -16 16 -9 0 -14 -5 -12
-12z"/>
<path d="M2870 3545 c0 -9 5 -15 11 -13 6 2 11 8 11 13 0 5 -5 11 -11 13 -6 2
-11 -4 -11 -13z"/>
<path d="M6707 2813 c-3 -5 8 -8 23 -8 15 0 26 3 23 8 -2 4 -13 7 -23 7 -10 0
-21 -3 -23 -7z"/>
<path d="M5216 2812 c-3 -6 -1 -14 5 -17 15 -10 25 3 12 16 -7 7 -13 7 -17 1z"/>
<path d="M5316 2801 c-4 -7 -5 -15 -2 -18 9 -9 19 4 14 18 -4 11 -6 11 -12 0z"/>
<path d="M6145 2399 c-10 -15 3 -25 16 -12 7 7 7 13 1 17 -6 3 -14 1 -17 -5z"/>
<path d="M5831 2034 c0 -11 3 -14 6 -6 3 7 2 16 -1 19 -3 4 -6 -2 -5 -13z"/>
<path d="M5160 2590 c0 -5 5 -10 10 -10 6 0 10 5 10 10 0 6 -4 10 -10 10 -5 0
-10 -4 -10 -10z"/>
<path d="M1740 2325 c0 -14 2 -25 4 -25 2 0 6 11 8 25 3 14 1 25 -3 25 -5 0
-9 -11 -9 -25z"/>
<path d="M1828 2339 c-2 -7 -16 -12 -31 -13 -40 -1 -33 -20 8 -23 31 -2 35 1
35 23 0 25 -6 32 -12 13z"/>
<path d="M1950 2326 c0 -21 5 -25 30 -24 18 1 30 6 30 15 0 16 -5 16 -33 1
-19 -10 -20 -9 -10 4 7 8 10 18 6 21 -13 14 -23 6 -23 -17z"/>
<path d="M2098 2325 c2 -14 6 -25 7 -25 1 0 5 11 7 25 3 16 1 25 -7 25 -8 0
-10 -9 -7 -25z"/>
<path d="M2252 2334 c-8 -8 -22 -12 -32 -9 -10 3 -21 2 -23 -2 -3 -5 2 -9 11
-10 9 -1 27 -4 40 -8 19 -6 22 -4 22 19 0 30 -1 30 -18 10z"/>
<path d="M2050 2333 c0 -5 5 -15 10 -23 8 -12 10 -11 10 8 0 12 -4 22 -10 22
-5 0 -10 -3 -10 -7z"/>
<path d="M1850 2315 c0 -8 7 -15 15 -15 8 0 15 7 15 15 0 8 -7 15 -15 15 -8 0
-15 -7 -15 -15z"/>
<path d="M1898 2307 c4 -14 7 -16 13 -5 12 19 11 25 -5 25 -8 0 -11 -8 -8 -20z"/>
<path d="M2030 2315 c0 -8 4 -15 10 -15 5 0 7 7 4 15 -4 8 -8 15 -10 15 -2 0
-4 -7 -4 -15z"/>
<path d="M2131 2314 c0 -11 3 -14 6 -6 3 7 2 16 -1 19 -3 4 -6 -2 -5 -13z"/>
<path d="M2157 2324 c-8 -8 1 -24 14 -24 5 0 9 7 9 15 0 15 -12 20 -23 9z"/>
<path d="M2301 2313 c0 -13 2 -14 6 -4 5 11 7 11 14 0 7 -11 9 -10 9 4 0 9 -7
17 -15 17 -8 0 -15 -8 -14 -17z"/>
<path d="M2340 2321 c0 -20 13 -41 21 -35 15 9 10 44 -6 44 -8 0 -15 -4 -15
-9z"/>
<path d="M1738 2235 c2 -14 6 -25 7 -25 1 0 5 11 7 25 3 16 1 25 -7 25 -8 0
-10 -9 -7 -25z"/>
<path d="M1765 2231 c-3 -5 -1 -12 5 -16 12 -7 30 2 30 16 0 12 -27 12 -35 0z"/>
<path d="M1810 2223 c0 -20 2 -21 25 -11 28 13 33 25 10 25 -8 0 -15 -5 -15
-11 0 -6 -5 -4 -10 4 -8 12 -10 11 -10 -7z"/>
<path d="M1870 2231 c0 -6 4 -12 8 -15 5 -3 9 1 9 9 0 8 -4 15 -9 15 -4 0 -8
-4 -8 -9z"/>
<path d="M1906 2225 c4 -8 8 -15 10 -15 2 0 4 7 4 15 0 8 -4 15 -10 15 -5 0
-7 -7 -4 -15z"/>
<path d="M5826 2443 c-11 -11 -6 -23 9 -23 8 0 15 4 15 9 0 13 -16 22 -24 14z"/>
<path d="M6010 2410 c0 -5 5 -10 10 -10 6 0 10 5 10 10 0 6 -4 10 -10 10 -5 0
-10 -4 -10 -10z"/>
<path d="M5240 2396 c0 -9 7 -16 16 -16 17 0 14 22 -4 28 -7 2 -12 -3 -12 -12z"/>
<path d="M6276 2403 c-11 -11 -6 -23 9 -23 8 0 15 4 15 9 0 13 -16 22 -24 14z"/>
<path d="M6366 2403 c-11 -11 -6 -23 9 -23 8 0 15 4 15 9 0 13 -16 22 -24 14z"/>
<path d="M5502 2228 c6 -18 28 -21 28 -4 0 9 -7 16 -16 16 -9 0 -14 -5 -12
-12z"/>
<path d="M5730 2231 c0 -6 5 -13 10 -16 6 -3 10 1 10 9 0 9 -4 16 -10 16 -5 0
-10 -4 -10 -9z"/>
<path d="M3225 1800 c-7 -12 2 -30 16 -30 5 0 9 9 9 20 0 21 -15 27 -25 10z"/>
<path d="M5410 1740 c0 -5 5 -10 10 -10 6 0 10 5 10 10 0 6 -4 10 -10 10 -5 0
-10 -4 -10 -10z"/>
</g>
</svg>
